<?xml version="1.0" encoding="UTF-8" standalone="no"?>
<svg width="121px" height="33px" viewBox="0 0 121 33" version="1.1" xmlns="http://www.w3.org/2000/svg" xmlns:xlink="http://www.w3.org/1999/xlink" xmlns:sketch="http://www.bohemiancoding.com/sketch/ns">
    <!-- Generator: Sketch 3.0.4 (8053) - http://www.bohemiancoding.com/sketch -->
    <title>StudentCrowd-RGB-Long</title>
    <desc>Created with Sketch.</desc>
    <defs>
        <path id="path-1" d="M0.0076340694,-0.0143935743 L120.973662,-0.0143935743 L120.973662,31.8714859 L0.0076340694,31.8714859 L0.0076340694,-0.0143935743 Z"></path>
    </defs>
    <g id="Page-1" stroke="none" stroke-width="1" fill="none" fill-rule="evenodd" sketch:type="MSPage">
        <g id="StudentCrowd-RGB-Long" sketch:type="MSLayerGroup" transform="translate(0.000000, 1.000000)">
            <path d="M101.28438,-0.0143935743 L103.468232,-0.0143935743 L103.468232,2.1915502 L101.28438,2.1915502 L101.28438,-0.0143935743 Z" id="Fill-1" fill="#FFFFFF" sketch:type="MSShapeGroup"></path>
            <path d="M96.916674,-0.0143935743 L99.1005268,-0.0143935743 L99.1005268,2.1915502 L96.916674,2.1915502 L96.916674,-0.0143935743 Z" id="Fill-2" fill="#FFFFFF" sketch:type="MSShapeGroup"></path>
            <path d="M85.9971556,-0.0143935743 L90.3648612,-0.0143935743 L90.3648612,2.1915502 L85.9971556,2.1915502 L85.9971556,-0.0143935743 Z" id="Fill-3" fill="#FFFFFF" sketch:type="MSShapeGroup"></path>
            <path d="M75.1824784,-0.0143935743 L77.3665857,-0.0143935743 L77.3665857,2.1915502 L75.1824784,2.1915502 L75.1824784,-0.0143935743 Z" id="Fill-4" fill="#FFFFFF" sketch:type="MSShapeGroup"></path>
            <path d="M57.7112744,-0.0143935743 L59.8953817,-0.0143935743 L59.8953817,2.1915502 L57.7112744,2.1915502 L57.7112744,-0.0143935743 Z" id="Fill-5" fill="#FFFFFF" sketch:type="MSShapeGroup"></path>
            <g id="Group-9">
                <mask id="mask-2" sketch:name="Clip 7" fill="white">
                    <use xlink:href="#path-1"></use>
                </mask>
                <g id="Clip-7"></g>
                <path d="M105.651958,-0.0143935743 L107.836065,-0.0143935743 L107.836065,2.1915502 L105.651958,2.1915502 L105.651958,-0.0143935743 Z" id="Fill-6" fill="#FFFFFF" sketch:type="MSShapeGroup" mask="url(#mask-2)"></path>
                <path d="M120.939691,-0.0143935743 L110.020427,-0.0143935743 L110.020427,2.1915502 L118.78981,2.1915502 L118.78981,29.6657992 L2.18398002,29.6657992 L2.18398002,2.1915502 L0,2.1915502 L0,31.8714859 L120.973662,31.8714859 L120.973662,-0.0143935743 L120.939691,-0.0143935743" id="Fill-8" fill="#FFFFFF" sketch:type="MSShapeGroup" mask="url(#mask-2)"></path>
            </g>
            <path d="M69.3160778,10.9781847 C66.562469,10.9781847 64.320979,13.2413173 64.320979,16.0236466 C64.320979,18.7661365 66.562469,20.9977831 69.3160778,20.9977831 C70.3246656,20.9977831 71.3422871,20.6600482 72.1812713,20.0472932 L72.3303901,19.9386988 L72.3303901,17.6363695 L71.7158475,18.2568353 C71.0337434,18.9465703 70.1456467,19.342008 69.2809611,19.342008 C67.519654,19.342008 66.0310105,17.805751 66.0310105,15.9876627 C66.0310105,14.1706024 67.5084574,12.6342169 69.2571682,12.6342169 C70.1590063,12.6342169 71.0533375,13.0281124 71.7119033,13.7147631 L72.3303901,14.3606747 L72.3303901,12.0411245 L72.1853428,11.9321446 C71.3341441,11.2903454 70.3956625,10.9781847 69.3160778,10.9781847" id="Fill-10" fill="#FFFFFF" sketch:type="MSShapeGroup"></path>
            <path d="M76.8365268,14.0460723 C76.8365268,14.9307631 76.3194458,15.2814779 74.9965889,15.2907309 L74.9965889,12.7895904 C76.2425962,12.7960161 76.8365268,12.9955984 76.8365268,14.0460723 L76.8365268,14.0460723 Z M78.5465584,13.97449 C78.5465584,12.0885462 77.3305783,11.1333012 74.9313176,11.1333012 L73.2859211,11.1333012 L73.2859211,20.8424096 L74.9965889,20.8424096 L74.9965889,17.3414297 L77.3847802,20.8424096 L79.4858034,20.8424096 L76.5797676,16.7100402 C77.7928212,16.3743614 78.5465584,15.3525462 78.5465584,13.97449 L78.5465584,13.97449 Z" id="Fill-11" fill="#FFFFFF" sketch:type="MSShapeGroup"></path>
            <path d="M84.226306,19.342008 C82.4153775,19.342008 80.9421293,17.8373655 80.9421293,15.9876627 C80.9421293,14.1388594 82.4153775,12.6342169 84.226306,12.6342169 C86.0381251,12.6342169 87.5112461,14.1388594 87.5112461,15.9876627 C87.5112461,17.8373655 86.0381251,19.342008 84.226306,19.342008 L84.226306,19.342008 Z M84.226306,10.9781847 C81.4721882,10.9781847 79.2313344,13.2307791 79.2313344,15.9996145 C79.2313344,18.7561124 81.4721882,20.9977831 84.226306,20.9977831 C86.9806782,20.9977831 89.2222955,18.7561124 89.2222955,15.9996145 C89.2222955,13.2307791 86.9806782,10.9781847 84.226306,10.9781847 L84.226306,10.9781847 Z" id="Fill-12" fill="#FFFFFF" sketch:type="MSShapeGroup"></path>
            <path d="M104.7874,19.1870201 L104.427962,19.1870201 L104.427962,12.7890763 L104.7874,12.7890763 C105.77792,12.7890763 106.585477,12.9222169 107.309951,13.5687711 C107.966862,14.1502972 108.343731,15.0321606 108.343731,15.9876627 C108.343731,16.9088514 107.990146,17.7493333 107.348248,18.3565622 C106.624029,19.0459116 105.800568,19.1870201 104.7874,19.1870201 L104.7874,19.1870201 Z M108.453789,12.3044498 C107.326746,11.3317269 106.158606,11.1333012 104.751647,11.1333012 L102.717294,11.1333012 L102.717294,20.8424096 L104.728108,20.8424096 C106.205046,20.8424096 107.348248,20.6384578 108.483307,19.6190843 C109.51098,18.6935261 110.05389,17.4416707 110.05389,15.9996145 C110.05389,14.491759 109.501183,13.2147149 108.453789,12.3044498 L108.453789,12.3044498 Z" id="Fill-13" fill="#FFFFFF" sketch:type="MSShapeGroup"></path>
            <path d="M92.897082,17.1976225 L90.7930053,11.1333012 L88.9501409,11.1333012 L92.4537971,20.8424096 L93.3014332,20.8424096 L95.7515878,14.6874859 L98.2019968,20.8424096 L99.049633,20.8424096 L102.552526,11.1333012 L100.710298,11.1333012 L98.6057119,17.1976225 L96.1185321,10.9781847 L95.384898,10.9781847 L92.897082,17.1976225" id="Fill-14" fill="#FFFFFF" sketch:type="MSShapeGroup"></path>
            <path d="M14.5855258,15.2259598 L13.9555878,14.9463133 C13.3350652,14.6637108 12.5628791,14.3114538 12.5628791,13.5771245 C12.5628791,12.8214618 13.192817,12.2295261 13.996939,12.2295261 C14.6786614,12.2295261 15.116857,12.5104578 15.5109022,13.1995502 L15.5773186,13.316241 L16.6253491,12.6369157 L16.5694932,12.5320482 C16.0443964,11.5511004 15.1159664,10.9887229 14.021877,10.9887229 C12.4470957,10.9887229 11.2597434,12.0855904 11.2597434,13.5393414 C11.2597434,14.9946345 12.3079012,15.597751 13.3843049,16.0918876 L14.0010105,16.3634378 C14.8690042,16.7642731 15.6186698,17.1099759 15.6186698,18.1188112 C15.6186698,19.0708434 14.8072955,19.8453976 13.8097771,19.8453976 C12.9112471,19.8453976 12.1874101,19.1638876 12.0494879,18.1889799 L12.0292576,18.0440161 L10.7513144,18.4061687 L10.7751073,18.5227309 C11.0911577,20.0798072 12.2921241,21.0856867 13.834715,21.0856867 C15.565613,21.0856867 16.9218055,19.7379598 16.9218055,18.0181847 C16.9218055,16.3972369 15.7675342,15.7501687 14.5855258,15.2259598" id="Fill-15" fill="#FFFFFF" sketch:type="MSShapeGroup"></path>
            <path d="M17.3803586,12.3936386 L19.65353,12.3936386 L19.65353,20.9219598 L20.9567928,20.9219598 L20.9567928,12.3936386 L23.254775,12.3936386 L23.254775,11.1524498 L17.3803586,11.1524498 L17.3803586,12.3936386" id="Fill-16" fill="#FFFFFF" sketch:type="MSShapeGroup"></path>
            <path d="M29.7205773,16.9456064 L29.720959,17.0915984 C29.7236309,17.7914859 29.7255394,18.5152771 29.2882345,19.0459116 C28.8874458,19.5313092 28.2002524,19.8453976 27.5372334,19.8453976 C26.8378254,19.8453976 26.0992292,19.4935261 25.7408097,18.9896225 C25.350836,18.4487068 25.3518538,17.7079518 25.3535079,17.0548434 L25.3535079,11.1524498 L24.0503722,11.1524498 L24.0503722,17.2357912 C24.0503722,18.244241 24.1239138,19.2210763 25.0125195,20.0778795 C25.650346,20.7088835 26.5941714,21.0856867 27.5372334,21.0856867 C28.5496383,21.0856867 29.5078412,20.6752129 30.1636078,19.9617028 C30.959205,19.1313735 31.0239674,18.235759 31.0239674,17.2357912 L31.0239674,11.1524498 L29.7205773,11.1524498 L29.7205773,16.9456064" id="Fill-17" fill="#FFFFFF" sketch:type="MSShapeGroup"></path>
            <path d="M34.5698654,19.6808996 L33.9349653,19.6808996 L33.9349653,12.3936386 L34.5698654,12.3936386 C35.6759148,12.3936386 36.5816972,12.5443855 37.4085941,13.2824418 C38.1591504,13.9473735 38.5895846,14.9513253 38.5895846,16.0371406 C38.5895846,17.083759 38.186633,18.0408032 37.4552892,18.7320803 C36.6275016,19.5196145 35.7030158,19.6808996 34.5698654,19.6808996 L34.5698654,19.6808996 Z M38.2867666,12.3318233 C37.1522166,11.3534458 35.9655005,11.1524498 34.5324585,11.1524498 L32.6319569,11.1524498 L32.6319569,20.9219598 L34.5068843,20.9219598 C36.0110505,20.9219598 37.1718107,20.7155663 38.3137403,19.6904096 C39.3471388,18.7603534 39.8920841,17.5013012 39.8920841,16.0498635 C39.8920841,14.5305703 39.3375962,13.2444016 38.2867666,12.3318233 L38.2867666,12.3318233 Z" id="Fill-18" fill="#FFFFFF" sketch:type="MSShapeGroup"></path>
            <path d="M41.1005573,20.9219598 L46.2380315,20.9219598 L46.2380315,19.6808996 L42.4034385,19.6808996 L42.4034385,16.2031807 L46.1256835,16.2031807 L46.1256835,14.9627631 L42.4034385,14.9627631 L42.4034385,12.3936386 L46.2380315,12.3936386 L46.2380315,11.1524498 L41.1005573,11.1524498 L41.1005573,20.9219598" id="Fill-19" fill="#FFFFFF" sketch:type="MSShapeGroup"></path>
            <path d="M57.3641788,12.3936386 L59.6368412,12.3936386 L59.6368412,20.9219598 L60.9404858,20.9219598 L60.9404858,12.3936386 L63.2385952,12.3936386 L63.2385952,11.1524498 L57.3641788,11.1524498 L57.3641788,12.3936386" id="Fill-20" fill="#FFFFFF" sketch:type="MSShapeGroup"></path>
            <path d="M55.1770179,11.1524498 L55.1770179,18.3282892 L48.3963102,11.1524498 L47.8330431,11.1524498 L47.8330431,20.9219598 L49.1364332,20.9219598 L49.1364332,13.7833896 L55.8933481,20.9219598 L56.4807897,20.9219598 L56.4807897,11.1524498 L55.1770179,11.1524498" id="Fill-21" fill="#FFFFFF" sketch:type="MSShapeGroup"></path>
        </g>
    </g>
</svg>